# Blender v3.2.1 OBJ File: ''
# www.blender.org
mtllib Road.mtl
o Plane
v 2.531959 0.000000 20.000002
v 2.531959 0.000000 18.000002
v -2.531959 0.000000 18.000002
v -2.531959 0.000000 20.000002
v 0.168797 0.000000 18.000002
v 0.168797 0.000000 20.000002
v -0.168797 0.000000 18.000002
v -0.168797 0.000000 20.000002
v 2.531959 0.000000 18.000002
v 2.531959 0.000000 16.000002
v -2.531959 0.000000 16.000002
v -2.531959 0.000000 18.000002
v 0.168797 0.000000 16.000002
v 0.168797 0.000000 18.000002
v -0.168797 0.000000 16.000002
v -0.168797 0.000000 18.000002
v 2.531959 0.000000 16.000000
v 2.531959 0.000000 14.000001
v -2.531959 0.000000 14.000002
v -2.531959 0.000000 16.000002
v 0.168797 0.000000 14.000002
v 0.168797 0.000000 16.000002
v -0.168797 0.000000 14.000002
v -0.168797 0.000000 16.000002
v 2.531959 0.000000 14.000000
v 2.531959 0.000000 12.000001
v -2.531959 0.000000 12.000001
v -2.531959 0.000000 14.000001
v 0.168797 0.000000 12.000001
v 0.168797 0.000000 14.000001
v -0.168797 0.000000 12.000001
v -0.168797 0.000000 14.000001
v 2.531959 0.000000 12.000000
v 2.531959 0.000000 10.000001
v -2.531959 0.000000 10.000001
v -2.531959 0.000000 12.000001
v 0.168797 0.000000 10.000001
v 0.168797 0.000000 12.000001
v -0.168797 0.000000 10.000001
v -0.168797 0.000000 12.000001
v 2.531959 0.000000 10.000000
v 2.531959 0.000000 8.000001
v -2.531959 0.000000 8.000001
v -2.531959 0.000000 10.000001
v 0.168797 0.000000 8.000001
v 0.168797 0.000000 10.000001
v -0.168797 0.000000 8.000001
v -0.168797 0.000000 10.000001
v 2.531959 0.000000 8.000000
v 2.531959 0.000000 6.000001
v -2.531959 0.000000 6.000001
v -2.531959 0.000000 8.000001
v 0.168797 0.000000 6.000001
v 0.168797 0.000000 8.000001
v -0.168797 0.000000 6.000001
v -0.168797 0.000000 8.000001
v 2.531959 0.000000 6.000000
v 2.531959 0.000000 4.000001
v -2.531959 0.000000 4.000001
v -2.531959 0.000000 6.000001
v 0.168797 0.000000 4.000001
v 0.168797 0.000000 6.000001
v -0.168797 0.000000 4.000001
v -0.168797 0.000000 6.000001
v 2.531959 0.000000 4.000000
v 2.531959 0.000000 2.000000
v -2.531959 0.000000 2.000000
v -2.531959 0.000000 4.000000
v 0.168797 0.000000 2.000000
v 0.168797 0.000000 4.000000
v -0.168797 0.000000 2.000000
v -0.168797 0.000000 4.000000
v 2.531959 0.000000 2.000000
v 2.531959 0.000000 0.000000
v -2.531959 0.000000 0.000000
v -2.531959 0.000000 2.000000
v 0.168797 0.000000 0.000000
v 0.168797 0.000000 2.000000
v -0.168797 0.000000 0.000000
v -0.168797 0.000000 2.000000
v 2.531959 0.000000 0.000000
v 2.531959 0.000000 -2.000000
v -2.531959 0.000000 -2.000000
v -2.531959 0.000000 0.000000
v 0.168797 0.000000 -2.000000
v 0.168797 0.000000 0.000000
v -0.168797 0.000000 -2.000000
v -0.168797 0.000000 0.000000
v 2.531959 0.000000 -2.000000
v 2.531959 0.000000 -4.000000
v -2.531959 0.000000 -4.000000
v -2.531959 0.000000 -2.000000
v 0.168797 0.000000 -4.000000
v 0.168797 0.000000 -2.000000
v -0.168797 0.000000 -4.000000
v -0.168797 0.000000 -2.000000
v 2.531959 0.000000 -4.000000
v 2.531959 0.000000 -6.000000
v -2.531959 0.000000 -6.000000
v -2.531959 0.000000 -4.000000
v 0.168797 0.000000 -6.000000
v 0.168797 0.000000 -4.000000
v -0.168797 0.000000 -6.000000
v -0.168797 0.000000 -4.000000
v 2.531959 0.000000 -6.000000
v 2.531959 0.000000 -8.000000
v -2.531959 0.000000 -8.000000
v -2.531959 0.000000 -6.000000
v 0.168797 0.000000 -8.000000
v 0.168797 0.000000 -6.000000
v -0.168797 0.000000 -8.000000
v -0.168797 0.000000 -6.000000
v 2.531959 0.000000 -8.000000
v 2.531959 0.000000 -10.000000
v -2.531959 0.000000 -10.000000
v -2.531959 0.000000 -8.000000
v 0.168797 0.000000 -10.000000
v 0.168797 0.000000 -8.000000
v -0.168797 0.000000 -10.000000
v -0.168797 0.000000 -8.000000
v 2.531959 0.000000 -10.000000
v 2.531959 0.000000 -12.000000
v -2.531959 0.000000 -12.000000
v -2.531959 0.000000 -10.000000
v 0.168797 0.000000 -12.000000
v 0.168797 0.000000 -10.000000
v -0.168797 0.000000 -12.000000
v -0.168797 0.000000 -10.000000
v 2.531959 0.000000 -12.000002
v 2.531959 0.000000 -14.000002
v -2.531959 0.000000 -14.000002
v -2.531959 0.000000 -12.000002
v 0.168797 0.000000 -14.000002
v 0.168797 0.000000 -12.000002
v -0.168797 0.000000 -14.000002
v -0.168797 0.000000 -12.000002
v 2.531959 0.000000 -14.000002
v 2.531959 0.000000 -16.000002
v -2.531959 0.000000 -16.000002
v -2.531959 0.000000 -14.000002
v 0.168797 0.000000 -16.000002
v 0.168797 0.000000 -14.000002
v -0.168797 0.000000 -16.000002
v -0.168797 0.000000 -14.000002
v 2.531959 0.000000 -16.000002
v 2.531959 0.000000 -18.000002
v -2.531959 0.000000 -18.000002
v -2.531959 0.000000 -16.000002
v 0.168797 0.000000 -18.000002
v 0.168797 0.000000 -16.000002
v -0.168797 0.000000 -18.000002
v -0.168797 0.000000 -16.000002
v 2.531959 0.000000 -18.000002
v 2.531959 0.000000 -20.000002
v -2.531959 0.000000 -20.000002
v -2.531959 0.000000 -18.000002
v 0.168797 0.000000 -20.000002
v 0.168797 0.000000 -18.000002
v -0.168797 0.000000 -20.000002
v -0.168797 0.000000 -18.000002
vt 0.333333 0.333333
vt 0.666667 0.333333
vt 0.666667 0.666667
vt 0.333333 0.666667
vt 0.333333 0.000000
vt 0.666667 0.000000
vt 0.666667 1.000000
vt 0.333333 1.000000
vt 0.333333 0.000000
vt 0.666667 0.000000
vt 0.666667 0.333333
vt 0.333333 0.333333
vt 0.333333 0.666667
vt 0.666667 0.666667
vt 0.666667 1.000000
vt 0.333333 1.000000
vt 0.333333 0.333333
vt 0.666667 0.333333
vt 0.666667 0.666667
vt 0.333333 0.666667
vt 0.333333 0.000000
vt 0.666667 0.000000
vt 0.666667 1.000000
vt 0.333333 1.000000
vt 0.333333 0.000000
vt 0.666667 0.000000
vt 0.666667 0.333333
vt 0.333333 0.333333
vt 0.333333 0.666667
vt 0.666667 0.666667
vt 0.666667 1.000000
vt 0.333333 1.000000
vt 0.333333 0.333333
vt 0.666667 0.333333
vt 0.666667 0.666667
vt 0.333333 0.666667
vt 0.333333 0.000000
vt 0.666667 0.000000
vt 0.666667 1.000000
vt 0.333333 1.000000
vt 0.333333 0.000000
vt 0.666667 0.000000
vt 0.666667 0.333333
vt 0.333333 0.333333
vt 0.333333 0.666667
vt 0.666667 0.666667
vt 0.666667 1.000000
vt 0.333333 1.000000
vt 0.333333 0.333333
vt 0.666667 0.333333
vt 0.666667 0.666667
vt 0.333333 0.666667
vt 0.333333 0.000000
vt 0.666667 0.000000
vt 0.666667 1.000000
vt 0.333333 1.000000
vt 0.333333 0.000000
vt 0.666667 0.000000
vt 0.666667 0.333333
vt 0.333333 0.333333
vt 0.333333 0.666667
vt 0.666667 0.666667
vt 0.666667 1.000000
vt 0.333333 1.000000
vt 0.333333 0.333333
vt 0.666667 0.333333
vt 0.666667 0.666667
vt 0.333333 0.666667
vt 0.333333 0.000000
vt 0.666667 0.000000
vt 0.666667 1.000000
vt 0.333333 1.000000
vt 0.333333 0.000000
vt 0.666667 0.000000
vt 0.666667 0.333333
vt 0.333333 0.333333
vt 0.333333 0.666667
vt 0.666667 0.666667
vt 0.666667 1.000000
vt 0.333333 1.000000
vt 0.333333 0.333333
vt 0.666667 0.333333
vt 0.666667 0.666667
vt 0.333333 0.666667
vt 0.333333 0.000000
vt 0.666667 0.000000
vt 0.666667 1.000000
vt 0.333333 1.000000
vt 0.333333 0.000000
vt 0.666667 0.000000
vt 0.666667 0.333333
vt 0.333333 0.333333
vt 0.333333 0.666667
vt 0.666667 0.666667
vt 0.666667 1.000000
vt 0.333333 1.000000
vt 0.333333 0.333333
vt 0.666667 0.333333
vt 0.666667 0.666667
vt 0.333333 0.666667
vt 0.333333 0.000000
vt 0.666667 0.000000
vt 0.666667 1.000000
vt 0.333333 1.000000
vt 0.333333 0.000000
vt 0.666667 0.000000
vt 0.666667 0.333333
vt 0.333333 0.333333
vt 0.333333 0.666667
vt 0.666667 0.666667
vt 0.666667 1.000000
vt 0.333333 1.000000
vt 0.333333 0.333333
vt 0.666667 0.333333
vt 0.666667 0.666667
vt 0.333333 0.666667
vt 0.333333 0.000000
vt 0.666667 0.000000
vt 0.666667 1.000000
vt 0.333333 1.000000
vt 0.333333 0.000000
vt 0.666667 0.000000
vt 0.666667 0.333333
vt 0.333333 0.333333
vt 0.333333 0.666667
vt 0.666667 0.666667
vt 0.666667 1.000000
vt 0.333333 1.000000
vt 0.333333 0.333333
vt 0.666667 0.333333
vt 0.666667 0.666667
vt 0.333333 0.666667
vt 0.333333 0.000000
vt 0.666667 0.000000
vt 0.666667 1.000000
vt 0.333333 1.000000
vt 0.333333 0.000000
vt 0.666667 0.000000
vt 0.666667 0.333333
vt 0.333333 0.333333
vt 0.333333 0.666667
vt 0.666667 0.666667
vt 0.666667 1.000000
vt 0.333333 1.000000
vt 0.333333 0.333333
vt 0.666667 0.333333
vt 0.666667 0.666667
vt 0.333333 0.666667
vt 0.333333 0.000000
vt 0.666667 0.000000
vt 0.666667 1.000000
vt 0.333333 1.000000
vt 0.333333 0.000000
vt 0.666667 0.000000
vt 0.666667 0.333333
vt 0.333333 0.333333
vt 0.333333 0.666667
vt 0.666667 0.666667
vt 0.666667 1.000000
vt 0.333333 1.000000
vn 0.0000 1.0000 0.0000
usemtl Material.001
s off
f 6/1/1 5/2/1 7/3/1 8/4/1
f 1/5/1 2/6/1 5/2/1 6/1/1
f 8/4/1 7/3/1 3/7/1 4/8/1
f 9/9/1 10/10/1 13/11/1 14/12/1
f 16/13/1 15/14/1 11/15/1 12/16/1
f 22/17/1 21/18/1 23/19/1 24/20/1
f 17/21/1 18/22/1 21/18/1 22/17/1
f 24/20/1 23/19/1 19/23/1 20/24/1
f 25/25/1 26/26/1 29/27/1 30/28/1
f 32/29/1 31/30/1 27/31/1 28/32/1
f 38/33/1 37/34/1 39/35/1 40/36/1
f 33/37/1 34/38/1 37/34/1 38/33/1
f 40/36/1 39/35/1 35/39/1 36/40/1
f 41/41/1 42/42/1 45/43/1 46/44/1
f 48/45/1 47/46/1 43/47/1 44/48/1
f 54/49/1 53/50/1 55/51/1 56/52/1
f 49/53/1 50/54/1 53/50/1 54/49/1
f 56/52/1 55/51/1 51/55/1 52/56/1
f 57/57/1 58/58/1 61/59/1 62/60/1
f 64/61/1 63/62/1 59/63/1 60/64/1
f 70/65/1 69/66/1 71/67/1 72/68/1
f 65/69/1 66/70/1 69/66/1 70/65/1
f 72/68/1 71/67/1 67/71/1 68/72/1
f 73/73/1 74/74/1 77/75/1 78/76/1
f 80/77/1 79/78/1 75/79/1 76/80/1
f 86/81/1 85/82/1 87/83/1 88/84/1
f 81/85/1 82/86/1 85/82/1 86/81/1
f 88/84/1 87/83/1 83/87/1 84/88/1
f 89/89/1 90/90/1 93/91/1 94/92/1
f 96/93/1 95/94/1 91/95/1 92/96/1
f 102/97/1 101/98/1 103/99/1 104/100/1
f 97/101/1 98/102/1 101/98/1 102/97/1
f 104/100/1 103/99/1 99/103/1 100/104/1
f 105/105/1 106/106/1 109/107/1 110/108/1
f 112/109/1 111/110/1 107/111/1 108/112/1
f 118/113/1 117/114/1 119/115/1 120/116/1
f 113/117/1 114/118/1 117/114/1 118/113/1
f 120/116/1 119/115/1 115/119/1 116/120/1
f 121/121/1 122/122/1 125/123/1 126/124/1
f 128/125/1 127/126/1 123/127/1 124/128/1
f 134/129/1 133/130/1 135/131/1 136/132/1
f 129/133/1 130/134/1 133/130/1 134/129/1
f 136/132/1 135/131/1 131/135/1 132/136/1
f 137/137/1 138/138/1 141/139/1 142/140/1
f 144/141/1 143/142/1 139/143/1 140/144/1
f 150/145/1 149/146/1 151/147/1 152/148/1
f 145/149/1 146/150/1 149/146/1 150/145/1
f 152/148/1 151/147/1 147/151/1 148/152/1
f 153/153/1 154/154/1 157/155/1 158/156/1
f 160/157/1 159/158/1 155/159/1 156/160/1
